
  <svg version="1.0" xmlns="http://www.w3.org/2000/svg" width="100%" height="100%" viewBox="0 0 1800.000000 1012.000000" preserveAspectRatio="xMidYMid meet" style="opacity: 0.2; position: fixed;"> 

    <g transform="translate(0.000000,1012.000000) scale(0.100000,-0.100000)" fill="none" stroke="#000000" stroke-width="15">
      <path d="M7171 7518 c-54 -349 -61 -491 -37 -718 23 -214 79 -420 115 -420 3
      0 26 25 50 55 78 97 244 220 409 302 l94 46 289 -289 c313 -314 338 -335 290
      -252 -93 164 -165 267 -374 539 l-37 49 27 6 c16 3 35 8 43 10 142 35 444 44
      606 18 54 -8 118 -18 142 -21 23 -3 42 -10 42 -16 0 -5 -24 -40 -53 -76 -169
      -209 -357 -490 -357 -534 0 -9 129 114 288 274 l287 290 40 -16 c112 -46 201
      -98 310 -180 74 -56 195 -176 195 -194 0 -18 29 -12 39 8 16 28 51 144 66 216
      45 207 47 520 5 805 -22 146 -26 165 -37 165 -22 0 -303 -257 -493 -451 -178
      -182 -210 -208 -236 -186 -9 9 -156 44 -258 62 -85 15 -366 12 -466 -4 -106
      -18 -129 -23 -213 -48 l-68 -21 -212 214 c-198 200 -457 439 -477 439 -4 0
      -13 -33 -19 -72z" class="hRQriqAM_0"></path>
      <path d="M7661 6349 c-46 -44 -106 -98 -135 -119 -28 -22 -76 -59 -106 -82
      -99 -78 -321 -234 -502 -355 -65 -43 -118 -85 -118 -93 0 -10 34 -25 108 -48
      180 -57 326 -134 502 -265 188 -141 302 -246 837 -771 l153 -150 77 75 c43 41
      202 194 353 340 393 380 543 506 750 630 105 63 157 86 300 135 68 23 126 46
      128 52 1 5 -41 40 -95 76 -54 37 -141 97 -194 134 -53 37 -118 82 -145 101
      -42 29 -159 117 -312 234 -28 21 -157 137 -207 186 -9 9 -78 -45 -134 -104
      -122 -131 -188 -255 -227 -426 -17 -73 -15 -269 3 -369 10 -59 32 -62 115 -18
      69 35 195 154 217 203 7 17 17 38 22 47 5 10 9 22 9 28 0 23 -17 7 -54 -50
      -21 -33 -59 -75 -85 -94 -65 -47 -141 -87 -152 -81 -14 9 -11 151 5 235 32
      164 91 282 198 394 l67 71 53 -50 c112 -107 337 -282 541 -422 37 -25 70 -49
      72 -54 3 -4 -28 -23 -69 -42 -261 -124 -561 -397 -950 -864 -66 -79 -124 -143
      -130 -142 -25 2 -111 36 -111 45 1 5 4 43 8 84 22 231 26 540 11 810 -8 151
      -19 309 -24 350 -6 41 -13 101 -16 133 -11 92 -36 69 -48 -43 -4 -36 -11 -101
      -16 -145 -23 -212 -32 -596 -20 -852 6 -142 14 -278 16 -303 l5 -45 -61 -18
      c-35 -10 -63 -17 -64 -15 -2 2 -49 59 -106 128 -381 461 -679 734 -950 872
      -44 22 -80 44 -80 47 0 4 30 27 67 52 150 99 391 284 515 397 45 39 84 72 87
      72 10 0 84 -79 125 -134 61 -81 101 -171 132 -296 14 -56 19 -251 8 -263 -4
      -4 -34 8 -68 25 -65 34 -171 133 -186 174 -13 33 -27 30 -22 -3 6 -43 81 -143
      142 -189 73 -55 145 -94 174 -94 20 0 25 6 30 38 52 323 3 532 -177 762 -44
      56 -152 150 -172 150 -5 -1 -48 -37 -94 -81z" class="hRQriqAM_1"></path>
      <path d="M10705 5439 c-385 -31 -755 -244 -1108 -641 -37 -42 -80 -92 -95
      -111 -134 -174 -119 -153 -244 -339 -43 -64 -78 -120 -78 -123 0 -4 -13 -25
      -29 -48 -15 -23 -30 -46 -32 -52 -2 -5 -19 -36 -38 -68 l-33 -57 -37 22 c-168
      101 -262 171 -489 361 -51 44 -96 77 -99 74 -19 -19 374 -430 494 -517 35 -25
      63 -49 63 -53 0 -4 -36 -81 -79 -170 -112 -230 -208 -441 -263 -577 -16 -41
      -41 -99 -54 -128 -13 -29 -24 -56 -24 -60 0 -5 -8 -26 -19 -48 -10 -21 -29
      -68 -41 -103 -12 -35 -35 -95 -51 -134 -30 -72 -36 -107 -19 -107 6 0 10 4 10
      10 0 5 18 39 40 75 22 36 40 68 40 70 0 3 11 22 23 43 13 20 35 57 49 82 113
      200 340 591 412 710 49 80 100 164 115 188 30 50 30 50 162 3 189 -68 398 -67
      602 4 106 36 200 99 306 205 69 70 191 225 191 245 0 4 9 19 20 34 18 27 129
      244 165 326 58 131 200 409 235 463 71 106 190 223 356 350 67 51 60 59 -58
      66 -190 10 -312 12 -393 5z m150 -164 c-22 -19 -43 -34 -47 -35 -7 0 -123
      -139 -153 -184 -83 -121 -163 -277 -226 -438 -19 -49 -37 -88 -40 -88 -10 0
      -31 177 -24 199 10 32 -8 32 -72 1 -34 -17 -82 -39 -108 -50 l-47 -20 6 27
      c11 44 25 196 20 205 -10 15 -131 8 -190 -11 -32 -11 -61 -18 -63 -15 -9 8
      113 126 192 185 43 33 107 75 142 95 68 37 217 101 275 116 127 34 199 45 300
      47 l75 1 -40 -35z" class="hRQriqAM_2"></path>
      <path d="M8275 4388 c-49 -38 -133 -101 -185 -140 -52 -39 -111 -82 -130 -97
      -34 -25 -66 -47 -156 -103 -22 -15 -77 -44 -122 -67 -44 -22 -83 -44 -86 -49
      -2 -4 24 -62 60 -128 36 -65 86 -157 111 -204 25 -47 61 -111 79 -143 19 -32
      34 -60 34 -62 0 -2 23 -42 50 -90 28 -48 50 -88 50 -90 0 -16 272 -472 371
      -622 32 -50 70 -74 54 -35 -4 9 -35 98 -70 197 -60 173 -91 256 -120 320 -7
      17 -22 50 -32 75 -11 25 -28 65 -39 90 -54 127 -227 461 -296 575 l-30 49 25
      21 c14 11 47 36 74 55 85 62 272 252 374 378 54 68 99 128 99 133 0 20 -29 4
      -115 -63z" class="hRQriqAM_3"></path>
    </g>
    <style data-made-with="vivus-instant">.hRQriqAM_0{stroke-dasharray:10840 10842;stroke-dashoffset:10841;animation:hRQriqAM_draw 444ms ease-in-out 0ms forwards;}.hRQriqAM_1{stroke-dasharray:19910 19912;stroke-dashoffset:19911;animation:hRQriqAM_draw 816ms ease-in-out 444ms forwards;}.hRQriqAM_2{stroke-dasharray:13172 13174;stroke-dashoffset:13173;animation:hRQriqAM_draw 540ms ease-in-out 1260ms forwards;}.hRQriqAM_3{stroke-dasharray:4860 4862;stroke-dashoffset:4861;animation:hRQriqAM_draw 199ms ease-in-out 1800ms forwards;}@keyframes hRQriqAM_draw{100%{stroke-dashoffset:0;}}@keyframes hRQriqAM_fade{0%{stroke-opacity:1;}93.54838709677419%{stroke-opacity:1;}100%{stroke-opacity:0;}}</style></svg>
